<?xml version="1.0" encoding="UTF-8" standalone="no"?>
<svg
   width="315.80469pt"
   height="206.96687pt"
   viewBox="0 0 315.80468 206.96688"
   version="1.1"
   id="svg109"
   sodipodi:docname="qrc_mse.svg"
   inkscape:version="1.3.2 (091e20e, 2023-11-25, custom)"
   xmlns:inkscape="http://www.inkscape.org/namespaces/inkscape"
   xmlns:sodipodi="http://sodipodi.sourceforge.net/DTD/sodipodi-0.dtd"
   xmlns:xlink="http://www.w3.org/1999/xlink"
   xmlns="http://www.w3.org/2000/svg"
   xmlns:svg="http://www.w3.org/2000/svg"
   xmlns:rdf="http://www.w3.org/1999/02/22-rdf-syntax-ns#"
   xmlns:cc="http://creativecommons.org/ns#"
   xmlns:dc="http://purl.org/dc/elements/1.1/">
  <sodipodi:namedview
     id="namedview109"
     pagecolor="#ffffff"
     bordercolor="#000000"
     borderopacity="0.25"
     inkscape:showpageshadow="2"
     inkscape:pageopacity="0.0"
     inkscape:pagecheckerboard="0"
     inkscape:deskcolor="#d1d1d1"
     inkscape:document-units="pt"
     inkscape:zoom="2.7540357"
     inkscape:cx="210.05537"
     inkscape:cy="137.61622"
     inkscape:window-width="1920"
     inkscape:window-height="1010"
     inkscape:window-x="1913"
     inkscape:window-y="-6"
     inkscape:window-maximized="1"
     inkscape:current-layer="figure_1" />
  <metadata
     id="metadata1">
    <rdf:RDF>
      <cc:Work>
        <dc:type
           rdf:resource="http://purl.org/dc/dcmitype/StillImage" />
        <dc:date>2024-08-29T17:48:29.069932</dc:date>
        <dc:format>image/svg+xml</dc:format>
        <dc:creator>
          <cc:Agent>
            <dc:title>Matplotlib v3.9.2, https://matplotlib.org/</dc:title>
          </cc:Agent>
        </dc:creator>
      </cc:Work>
    </rdf:RDF>
  </metadata>
  <defs
     id="defs1">
    <style
       type="text/css"
       id="style1">*{stroke-linejoin: round; stroke-linecap: butt}</style>
  </defs>
  <g
     id="figure_1"
     transform="translate(-7.376563,-7.507812)">
    <g
       id="axes_1">
      <g
         id="patch_2">
        <path
           d="m 43.78125,93.398438 h 279 V 17.798437 h -279 z"
           style="fill:#ffffff"
           id="path2" />
      </g>
      <g
         id="matplotlib.axis_1" />
      <g
         id="matplotlib.axis_2">
        <g
           id="ytick_1">
          <g
             id="line2d_1">
            <defs
               id="defs2">
              <path
                 id="m4716a5d88e"
                 d="M 0,0 H -3.5"
                 style="stroke:#000000;stroke-width:0.8" />
            </defs>
            <g
               id="g2">
              <use
                 xlink:href="#m4716a5d88e"
                 x="43.78125"
                 y="91.897026"
                 style="stroke:#000000;stroke-width:0.8"
                 id="use2" />
            </g>
          </g>
          <g
             id="text_1">
            <!-- −4 -->
            <g
               transform="matrix(0.1,0,0,-0.1,22.039063,95.696244)"
               id="g4">
              <defs
                 id="defs3">
                <path
                   id="DejaVuSans-2212"
                   d="M 678,2272 H 4684 V 1741 H 678 Z"
                   transform="scale(0.015625)" />
                <path
                   id="DejaVuSans-34"
                   d="M 2419,4116 825,1625 h 1594 z m -166,550 h 794 V 1625 h 666 V 1100 H 3047 V 0 H 2419 V 1100 H 313 v 609 z"
                   transform="scale(0.015625)" />
              </defs>
              <use
                 xlink:href="#DejaVuSans-2212"
                 id="use3" />
              <use
                 xlink:href="#DejaVuSans-34"
                 x="83.789062"
                 id="use4" />
            </g>
          </g>
        </g>
        <g
           id="ytick_2">
          <g
             id="line2d_2">
            <g
               id="g5">
              <use
                 xlink:href="#m4716a5d88e"
                 x="43.78125"
                 y="60.843479"
                 style="stroke:#000000;stroke-width:0.8"
                 id="use5" />
            </g>
          </g>
          <g
             id="text_2">
            <!-- −2 -->
            <g
               transform="matrix(0.1,0,0,-0.1,22.039063,64.642698)"
               id="g7">
              <defs
                 id="defs5">
                <path
                   id="DejaVuSans-32"
                   d="M 1228,531 H 3431 V 0 H 469 v 531 q 359,372 979,998 621,627 780,809 303,340 423,576 121,236 121,464 0,372 -261,606 -261,235 -680,235 -297,0 -627,-103 -329,-103 -704,-313 v 638 q 381,153 712,231 332,78 607,78 725,0 1156,-363 431,-362 431,-968 0,-288 -108,-546 -107,-257 -392,-607 -78,-91 -497,-524 Q 1991,1309 1228,531 Z"
                   transform="scale(0.015625)" />
              </defs>
              <use
                 xlink:href="#DejaVuSans-2212"
                 id="use6" />
              <use
                 xlink:href="#DejaVuSans-32"
                 x="83.789062"
                 id="use7" />
            </g>
          </g>
        </g>
        <g
           id="ytick_3">
          <g
             id="line2d_3">
            <g
               id="g8">
              <use
                 xlink:href="#m4716a5d88e"
                 x="43.78125"
                 y="29.789932"
                 style="stroke:#000000;stroke-width:0.8"
                 id="use8" />
            </g>
          </g>
          <g
             id="text_3">
            <!-- 0 -->
            <g
               transform="matrix(0.1,0,0,-0.1,30.41875,33.589152)"
               id="g9">
              <defs
                 id="defs8">
                <path
                   id="DejaVuSans-30"
                   d="m 2034,4250 q -487,0 -733,-480 -245,-479 -245,-1442 0,-959 245,-1439 246,-480 733,-480 491,0 736,480 246,480 246,1439 0,963 -246,1442 -245,480 -736,480 z m 0,500 q 785,0 1199,-621 414,-620 414,-1801 0,-1178 -414,-1799 -414,-620 -1199,-620 -784,0 -1198,620 -414,621 -414,1799 0,1181 414,1801 414,621 1198,621 z"
                   transform="scale(0.015625)" />
              </defs>
              <use
                 xlink:href="#DejaVuSans-30"
                 id="use9" />
            </g>
          </g>
        </g>
        <g
           id="text_4">
          <!-- Fidelity -->
          <g
             transform="matrix(0,-0.1,-0.1,0,15.959375,73.449219)"
             id="g17">
            <defs
               id="defs9">
              <path
                 id="DejaVuSans-46"
                 d="M 628,4666 H 3309 V 4134 H 1259 V 2759 H 3109 V 2228 H 1259 V 0 H 628 Z"
                 transform="scale(0.015625)" />
              <path
                 id="DejaVuSans-69"
                 d="m 603,3500 h 575 V 0 H 603 Z m 0,1363 h 575 V 4134 H 603 Z"
                 transform="scale(0.015625)" />
              <path
                 id="DejaVuSans-64"
                 d="m 2906,2969 v 1894 h 575 V 0 H 2906 V 525 Q 2725,213 2448,61 2172,-91 1784,-91 1150,-91 751,415 353,922 353,1747 q 0,825 398,1331 399,506 1033,506 388,0 664,-152 277,-151 458,-463 z M 947,1747 q 0,-634 261,-995 261,-361 717,-361 456,0 718,361 263,361 263,995 0,634 -263,995 -262,361 -718,361 -456,0 -717,-361 -261,-361 -261,-995 z"
                 transform="scale(0.015625)" />
              <path
                 id="DejaVuSans-65"
                 d="M 3597,1894 V 1613 H 953 q 38,-594 358,-905 320,-311 892,-311 331,0 642,81 311,81 618,244 V 178 Q 3153,47 2828,-22 2503,-91 2169,-91 1331,-91 842,396 353,884 353,1716 q 0,859 464,1363 464,505 1252,505 706,0 1117,-455 411,-454 411,-1235 z m -575,169 q -6,471 -264,752 -258,282 -683,282 -481,0 -770,-272 -289,-272 -333,-766 z"
                 transform="scale(0.015625)" />
              <path
                 id="DejaVuSans-6c"
                 d="m 603,4863 h 575 V 0 H 603 Z"
                 transform="scale(0.015625)" />
              <path
                 id="DejaVuSans-74"
                 d="M 1172,4494 V 3500 H 2356 V 3053 H 1172 V 1153 q 0,-428 117,-550 117,-122 477,-122 h 590 V 0 H 1766 Q 1100,0 847,248 594,497 594,1153 V 3053 H 172 v 447 h 422 v 994 z"
                 transform="scale(0.015625)" />
              <path
                 id="DejaVuSans-79"
                 d="m 2059,-325 q -243,-625 -475,-815 -231,-191 -618,-191 H 506 v 481 h 338 q 237,0 368,113 132,112 291,531 L 1606,56 191,3500 H 800 L 1894,763 2988,3500 h 609 z"
                 transform="scale(0.015625)" />
            </defs>
            <use
               xlink:href="#DejaVuSans-46"
               id="use10" />
            <use
               xlink:href="#DejaVuSans-69"
               x="50.269531"
               id="use11" />
            <use
               xlink:href="#DejaVuSans-64"
               x="78.052734"
               id="use12" />
            <use
               xlink:href="#DejaVuSans-65"
               x="141.5293"
               id="use13" />
            <use
               xlink:href="#DejaVuSans-6c"
               x="203.05273"
               id="use14" />
            <use
               xlink:href="#DejaVuSans-69"
               x="230.83594"
               id="use15" />
            <use
               xlink:href="#DejaVuSans-74"
               x="258.61914"
               id="use16" />
            <use
               xlink:href="#DejaVuSans-79"
               x="297.82812"
               id="use17" />
          </g>
        </g>
        <g
           id="text_5">
          <!-- 1e−7+1 -->
          <g
             transform="matrix(0.1,0,0,-0.1,43.78125,14.798437)"
             id="g23">
            <defs
               id="defs17">
              <path
                 id="DejaVuSans-31"
                 d="M 794,531 H 1825 V 4091 L 703,3866 v 575 l 1116,225 h 631 V 531 H 3481 V 0 H 794 Z"
                 transform="scale(0.015625)" />
              <path
                 id="DejaVuSans-37"
                 d="M 525,4666 H 3525 V 4397 L 1831,0 H 1172 L 2766,4134 H 525 Z"
                 transform="scale(0.015625)" />
              <path
                 id="DejaVuSans-2b"
                 d="M 2944,4013 V 2272 H 4684 V 1741 H 2944 V 0 H 2419 V 1741 H 678 v 531 h 1741 v 1741 z"
                 transform="scale(0.015625)" />
            </defs>
            <use
               xlink:href="#DejaVuSans-31"
               id="use18" />
            <use
               xlink:href="#DejaVuSans-65"
               x="63.623047"
               id="use19" />
            <use
               xlink:href="#DejaVuSans-2212"
               x="125.14648"
               id="use20" />
            <use
               xlink:href="#DejaVuSans-37"
               x="208.93555"
               id="use21" />
            <use
               xlink:href="#DejaVuSans-2b"
               x="272.55859"
               id="use22" />
            <use
               xlink:href="#DejaVuSans-31"
               x="356.34766"
               id="use23" />
          </g>
        </g>
      </g>
      <g
         id="line2d_4">
        <path
           d="m 56.463068,44.964 18.116883,4.469862 18.116883,-4.297324 18.116886,8.478363 18.11688,10.608476 18.11688,0.970496 18.11689,-1.636445 18.11688,-4.272759 18.11688,16.311729 18.11689,-12.297551 18.11688,10.561958 18.11688,2.107357 18.11689,9.060058 18.11688,1.312573 18.11688,3.621281"
           clip-path="url(#pf2bbf200ce)"
           style="fill:none;stroke:#1f77b4;stroke-width:1.5;stroke-linecap:square"
           id="path23" />
      </g>
      <g
         id="line2d_5">
        <path
           d="m 56.463068,34.504048 18.116883,-0.288918 18.116883,-6.782674 18.116886,1.477789 18.11688,6.752393 18.11688,-0.146969 18.11689,-7.955151 18.11688,-6.325717 18.11688,12.694478 18.11689,-12.564778 18.11688,4.137943 18.11688,2.130449 18.11689,2.104357 18.11688,-1.471644 18.11688,1.566332"
           clip-path="url(#pf2bbf200ce)"
           style="fill:none;stroke:#ff7f0e;stroke-width:1.5;stroke-linecap:square"
           id="path24" />
      </g>
      <g
         id="patch_3">
        <path
           d="m 43.78125,93.398437 v -75.6"
           style="fill:none;stroke:#000000;stroke-width:0.8;stroke-linecap:square;stroke-linejoin:miter"
           id="path25" />
      </g>
      <g
         id="patch_4">
        <path
           d="m 322.78125,93.398437 v -75.6"
           style="fill:none;stroke:#000000;stroke-width:0.8;stroke-linecap:square;stroke-linejoin:miter"
           id="path26" />
      </g>
      <g
         id="patch_5">
        <path
           d="m 43.78125,93.398438 h 279"
           style="fill:none;stroke:#000000;stroke-width:0.8;stroke-linecap:square;stroke-linejoin:miter"
           id="path27" />
      </g>
      <g
         id="patch_6">
        <path
           d="m 43.78125,17.798437 h 279"
           style="fill:none;stroke:#000000;stroke-width:0.8;stroke-linecap:square;stroke-linejoin:miter"
           id="path28" />
      </g>
    </g>
    <g
       id="axes_2">
      <g
         id="patch_7">
        <path
           d="m 43.78125,184.11844 h 279 v -75.6 h -279 z"
           style="fill:#ffffff"
           id="path29" />
      </g>
      <g
         id="matplotlib.axis_3">
        <g
           id="xtick_1">
          <g
             id="line2d_6">
            <defs
               id="defs29">
              <path
                 id="mb3083026f2"
                 d="M 0,0 V 3.5"
                 style="stroke:#000000;stroke-width:0.8" />
            </defs>
            <g
               id="g29">
              <use
                 xlink:href="#mb3083026f2"
                 x="56.463066"
                 y="184.11844"
                 style="stroke:#000000;stroke-width:0.8"
                 id="use29" />
            </g>
          </g>
          <g
             id="text_6">
            <!-- 3 -->
            <g
               transform="matrix(0.1,0,0,-0.1,53.281818,198.71687)"
               id="g30">
              <defs
                 id="defs30">
                <path
                   id="DejaVuSans-33"
                   d="m 2597,2516 q 453,-97 707,-404 255,-306 255,-756 0,-690 -475,-1069 -475,-378 -1350,-378 -293,0 -604,58 -311,58 -642,174 v 609 q 262,-153 574,-231 313,-78 654,-78 593,0 904,234 311,234 311,681 0,413 -289,645 -289,233 -804,233 h -544 v 519 h 569 q 465,0 712,186 247,186 247,536 0,359 -255,551 -254,193 -729,193 -260,0 -557,-57 -297,-56 -653,-174 v 562 q 360,100 674,150 314,50 592,50 719,0 1137,-327 419,-326 419,-882 0,-388 -222,-655 -222,-267 -631,-370 z"
                   transform="scale(0.015625)" />
              </defs>
              <use
                 xlink:href="#DejaVuSans-33"
                 id="use30" />
            </g>
          </g>
        </g>
        <g
           id="xtick_2">
          <g
             id="line2d_7">
            <g
               id="g31">
              <use
                 xlink:href="#mb3083026f2"
                 x="74.579948"
                 y="184.11844"
                 style="stroke:#000000;stroke-width:0.8"
                 id="use31" />
            </g>
          </g>
          <g
             id="text_7">
            <!-- 4 -->
            <g
               transform="matrix(0.1,0,0,-0.1,71.398701,198.71687)"
               id="g32">
              <use
                 xlink:href="#DejaVuSans-34"
                 id="use32" />
            </g>
          </g>
        </g>
        <g
           id="xtick_3">
          <g
             id="line2d_8">
            <g
               id="g33">
              <use
                 xlink:href="#mb3083026f2"
                 x="92.696831"
                 y="184.11844"
                 style="stroke:#000000;stroke-width:0.8"
                 id="use33" />
            </g>
          </g>
          <g
             id="text_8">
            <!-- 5 -->
            <g
               transform="matrix(0.1,0,0,-0.1,89.515584,198.71687)"
               id="g34">
              <defs
                 id="defs33">
                <path
                   id="DejaVuSans-35"
                   d="M 691,4666 H 3169 V 4134 H 1269 V 2991 q 137,47 274,70 138,23 276,23 781,0 1237,-428 457,-428 457,-1159 Q 3513,744 3044,326 2575,-91 1722,-91 1428,-91 1123,-41 819,9 494,109 v 635 q 281,-153 581,-228 300,-75 634,-75 541,0 856,284 316,284 316,772 0,487 -316,771 -315,285 -856,285 -253,0 -505,-56 -251,-56 -513,-175 z"
                   transform="scale(0.015625)" />
              </defs>
              <use
                 xlink:href="#DejaVuSans-35"
                 id="use34" />
            </g>
          </g>
        </g>
        <g
           id="xtick_4">
          <g
             id="line2d_9">
            <g
               id="g35">
              <use
                 xlink:href="#mb3083026f2"
                 x="110.81372"
                 y="184.11844"
                 style="stroke:#000000;stroke-width:0.8"
                 id="use35" />
            </g>
          </g>
          <g
             id="text_9">
            <!-- 6 -->
            <g
               transform="matrix(0.1,0,0,-0.1,107.63247,198.71687)"
               id="g36">
              <defs
                 id="defs35">
                <path
                   id="DejaVuSans-36"
                   d="m 2113,2584 q -425,0 -674,-291 -248,-290 -248,-796 0,-503 248,-796 249,-292 674,-292 425,0 673,292 248,293 248,796 0,506 -248,796 -248,291 -673,291 z m 1253,1979 v -575 q -238,112 -480,171 -242,60 -480,60 -625,0 -955,-422 -329,-422 -376,-1275 184,272 462,417 279,145 613,145 703,0 1111,-427 408,-426 408,-1160 0,-719 -425,-1154 -425,-434 -1131,-434 -810,0 -1238,620 -428,621 -428,1799 0,1106 525,1764 525,658 1409,658 238,0 480,-47 242,-47 505,-140 z"
                   transform="scale(0.015625)" />
              </defs>
              <use
                 xlink:href="#DejaVuSans-36"
                 id="use36" />
            </g>
          </g>
        </g>
        <g
           id="xtick_5">
          <g
             id="line2d_10">
            <g
               id="g37">
              <use
                 xlink:href="#mb3083026f2"
                 x="128.9306"
                 y="184.11844"
                 style="stroke:#000000;stroke-width:0.8"
                 id="use37" />
            </g>
          </g>
          <g
             id="text_10">
            <!-- 7 -->
            <g
               transform="matrix(0.1,0,0,-0.1,125.74935,198.71687)"
               id="g38">
              <use
                 xlink:href="#DejaVuSans-37"
                 id="use38" />
            </g>
          </g>
        </g>
        <g
           id="xtick_6">
          <g
             id="line2d_11">
            <g
               id="g39">
              <use
                 xlink:href="#mb3083026f2"
                 x="147.04749"
                 y="184.11844"
                 style="stroke:#000000;stroke-width:0.8"
                 id="use39" />
            </g>
          </g>
          <g
             id="text_11">
            <!-- 8 -->
            <g
               transform="matrix(0.1,0,0,-0.1,143.86623,198.71687)"
               id="g40">
              <defs
                 id="defs39">
                <path
                   id="DejaVuSans-38"
                   d="m 2034,2216 q -450,0 -708,-241 -257,-241 -257,-662 0,-422 257,-663 258,-241 708,-241 450,0 709,242 260,243 260,662 0,421 -258,662 -257,241 -711,241 z m -631,268 q -406,100 -633,378 -226,279 -226,679 0,559 398,884 399,325 1092,325 697,0 1094,-325 397,-325 397,-884 0,-400 -227,-679 -226,-278 -629,-378 456,-106 710,-416 255,-309 255,-755 Q 3634,634 3220,271 2806,-91 2034,-91 1263,-91 848,271 434,634 434,1313 q 0,446 256,755 257,310 713,416 z m -231,997 q 0,-362 226,-565 227,-203 636,-203 407,0 636,203 230,203 230,565 0,363 -230,566 -229,203 -636,203 -409,0 -636,-203 -226,-203 -226,-566 z"
                   transform="scale(0.015625)" />
              </defs>
              <use
                 xlink:href="#DejaVuSans-38"
                 id="use40" />
            </g>
          </g>
        </g>
        <g
           id="xtick_7">
          <g
             id="line2d_12">
            <g
               id="g41">
              <use
                 xlink:href="#mb3083026f2"
                 x="165.16437"
                 y="184.11844"
                 style="stroke:#000000;stroke-width:0.8"
                 id="use41" />
            </g>
          </g>
          <g
             id="text_12">
            <!-- 9 -->
            <g
               transform="matrix(0.1,0,0,-0.1,161.98312,198.71687)"
               id="g42">
              <defs
                 id="defs41">
                <path
                   id="DejaVuSans-39"
                   d="m 703,97 v 575 q 238,-113 481,-172 244,-59 479,-59 625,0 954,420 330,420 377,1277 -181,-269 -460,-413 -278,-144 -615,-144 -700,0 -1108,423 -408,424 -408,1159 0,718 425,1152 425,435 1131,435 810,0 1236,-621 427,-620 427,-1801 Q 3622,1225 3098,567 2575,-91 1691,-91 1453,-91 1209,-44 966,3 703,97 Z m 1256,1978 q 425,0 673,290 249,291 249,798 0,503 -249,795 -248,292 -673,292 -425,0 -673,-292 -248,-292 -248,-795 0,-507 248,-798 248,-290 673,-290 z"
                   transform="scale(0.015625)" />
              </defs>
              <use
                 xlink:href="#DejaVuSans-39"
                 id="use42" />
            </g>
          </g>
        </g>
        <g
           id="xtick_8">
          <g
             id="line2d_13">
            <g
               id="g43">
              <use
                 xlink:href="#mb3083026f2"
                 x="183.28125"
                 y="184.11844"
                 style="stroke:#000000;stroke-width:0.8"
                 id="use43" />
            </g>
          </g>
          <g
             id="text_13">
            <!-- 10 -->
            <g
               transform="matrix(0.1,0,0,-0.1,176.91875,198.71687)"
               id="g45">
              <use
                 xlink:href="#DejaVuSans-31"
                 id="use44" />
              <use
                 xlink:href="#DejaVuSans-30"
                 x="63.623047"
                 id="use45" />
            </g>
          </g>
        </g>
        <g
           id="xtick_9">
          <g
             id="line2d_14">
            <g
               id="g46">
              <use
                 xlink:href="#mb3083026f2"
                 x="201.39813"
                 y="184.11844"
                 style="stroke:#000000;stroke-width:0.8"
                 id="use46" />
            </g>
          </g>
          <g
             id="text_14">
            <!-- 11 -->
            <g
               transform="matrix(0.1,0,0,-0.1,195.03563,198.71687)"
               id="g48">
              <use
                 xlink:href="#DejaVuSans-31"
                 id="use47" />
              <use
                 xlink:href="#DejaVuSans-31"
                 x="63.623047"
                 id="use48" />
            </g>
          </g>
        </g>
        <g
           id="xtick_10">
          <g
             id="line2d_15">
            <g
               id="g49">
              <use
                 xlink:href="#mb3083026f2"
                 x="219.51501"
                 y="184.11844"
                 style="stroke:#000000;stroke-width:0.8"
                 id="use49" />
            </g>
          </g>
          <g
             id="text_15">
            <!-- 12 -->
            <g
               transform="matrix(0.1,0,0,-0.1,213.15252,198.71687)"
               id="g51">
              <use
                 xlink:href="#DejaVuSans-31"
                 id="use50" />
              <use
                 xlink:href="#DejaVuSans-32"
                 x="63.623047"
                 id="use51" />
            </g>
          </g>
        </g>
        <g
           id="xtick_11">
          <g
             id="line2d_16">
            <g
               id="g52">
              <use
                 xlink:href="#mb3083026f2"
                 x="237.6319"
                 y="184.11844"
                 style="stroke:#000000;stroke-width:0.8"
                 id="use52" />
            </g>
          </g>
          <g
             id="text_16">
            <!-- 13 -->
            <g
               transform="matrix(0.1,0,0,-0.1,231.2694,198.71687)"
               id="g54">
              <use
                 xlink:href="#DejaVuSans-31"
                 id="use53" />
              <use
                 xlink:href="#DejaVuSans-33"
                 x="63.623047"
                 id="use54" />
            </g>
          </g>
        </g>
        <g
           id="xtick_12">
          <g
             id="line2d_17">
            <g
               id="g55">
              <use
                 xlink:href="#mb3083026f2"
                 x="255.74878"
                 y="184.11844"
                 style="stroke:#000000;stroke-width:0.8"
                 id="use55" />
            </g>
          </g>
          <g
             id="text_17">
            <!-- 14 -->
            <g
               transform="matrix(0.1,0,0,-0.1,249.38628,198.71687)"
               id="g57">
              <use
                 xlink:href="#DejaVuSans-31"
                 id="use56" />
              <use
                 xlink:href="#DejaVuSans-34"
                 x="63.623047"
                 id="use57" />
            </g>
          </g>
        </g>
        <g
           id="xtick_13">
          <g
             id="line2d_18">
            <g
               id="g58">
              <use
                 xlink:href="#mb3083026f2"
                 x="273.86566"
                 y="184.11844"
                 style="stroke:#000000;stroke-width:0.8"
                 id="use58" />
            </g>
          </g>
          <g
             id="text_18">
            <!-- 15 -->
            <g
               transform="matrix(0.1,0,0,-0.1,267.50317,198.71687)"
               id="g60">
              <use
                 xlink:href="#DejaVuSans-31"
                 id="use59" />
              <use
                 xlink:href="#DejaVuSans-35"
                 x="63.623047"
                 id="use60" />
            </g>
          </g>
        </g>
        <g
           id="xtick_14">
          <g
             id="line2d_19">
            <g
               id="g61">
              <use
                 xlink:href="#mb3083026f2"
                 x="291.98254"
                 y="184.11844"
                 style="stroke:#000000;stroke-width:0.8"
                 id="use61" />
            </g>
          </g>
          <g
             id="text_19">
            <!-- 16 -->
            <g
               transform="matrix(0.1,0,0,-0.1,285.62005,198.71687)"
               id="g63">
              <use
                 xlink:href="#DejaVuSans-31"
                 id="use62" />
              <use
                 xlink:href="#DejaVuSans-36"
                 x="63.623047"
                 id="use63" />
            </g>
          </g>
        </g>
        <g
           id="xtick_15">
          <g
             id="line2d_20">
            <g
               id="g64">
              <use
                 xlink:href="#mb3083026f2"
                 x="310.09943"
                 y="184.11844"
                 style="stroke:#000000;stroke-width:0.8"
                 id="use64" />
            </g>
          </g>
          <g
             id="text_20">
            <!-- 17 -->
            <g
               transform="matrix(0.1,0,0,-0.1,303.73693,198.71687)"
               id="g66">
              <use
                 xlink:href="#DejaVuSans-31"
                 id="use65" />
              <use
                 xlink:href="#DejaVuSans-37"
                 x="63.623047"
                 id="use66" />
            </g>
          </g>
        </g>
        <g
           id="text_21">
          <!-- # qubits -->
          <g
             transform="matrix(0.1,0,0,-0.1,162.03125,212.395)"
             id="g74">
            <defs
               id="defs66">
              <path
                 id="DejaVuSans-23"
                 d="M 3272,2816 H 2363 L 2100,1772 h 916 z M 2803,4594 2478,3297 h 913 l 328,1297 h 500 L 3897,3297 h 975 V 2816 H 3775 L 3519,1772 h 994 V 1294 H 3397 L 3072,0 h -500 l 322,1294 H 1978 L 1656,0 h -503 l 325,1294 H 494 v 478 h 1100 l 262,1044 H 850 v 481 h 1128 l 319,1297 z"
                 transform="scale(0.015625)" />
              <path
                 id="DejaVuSans-20"
                 transform="scale(0.015625)"
                 d="" />
              <path
                 id="DejaVuSans-71"
                 d="m 947,1747 q 0,-634 261,-995 261,-361 717,-361 456,0 718,361 263,361 263,995 0,634 -263,995 -262,361 -718,361 -456,0 -717,-361 Q 947,2381 947,1747 Z M 2906,525 Q 2725,213 2448,61 2172,-91 1784,-91 1150,-91 751,415 353,922 353,1747 q 0,825 398,1331 399,506 1033,506 388,0 664,-152 277,-151 458,-463 v 531 h 575 v -4831 h -575 z"
                 transform="scale(0.015625)" />
              <path
                 id="DejaVuSans-75"
                 d="m 544,1381 v 2119 h 575 V 1403 q 0,-497 193,-746 194,-248 582,-248 465,0 735,297 271,297 271,810 v 1984 h 575 V 0 H 2900 V 538 Q 2691,219 2414,64 2138,-91 1772,-91 1169,-91 856,284 544,659 544,1381 Z m 1447,2203 z"
                 transform="scale(0.015625)" />
              <path
                 id="DejaVuSans-62"
                 d="m 3116,1747 q 0,634 -261,995 -261,361 -717,361 -457,0 -718,-361 -261,-361 -261,-995 0,-634 261,-995 261,-361 718,-361 456,0 717,361 261,361 261,995 z M 1159,2969 q 182,312 458,463 277,152 661,152 638,0 1036,-506 399,-506 399,-1331 Q 3713,922 3314,415 2916,-91 2278,-91 1894,-91 1617,61 1341,213 1159,525 V 0 H 581 v 4863 h 578 z"
                 transform="scale(0.015625)" />
              <path
                 id="DejaVuSans-73"
                 d="m 2834,3397 v -544 q -243,125 -506,187 -262,63 -544,63 -428,0 -642,-131 -214,-131 -214,-394 0,-200 153,-314 153,-114 616,-217 l 197,-44 q 612,-131 870,-370 258,-239 258,-667 0,-488 -386,-773 Q 2250,-91 1575,-91 1294,-91 989,-36 684,19 347,128 v 594 q 319,-166 628,-249 309,-82 613,-82 406,0 624,139 219,139 219,392 0,234 -158,359 -157,125 -692,241 l -200,47 q -534,112 -772,345 -237,233 -237,639 0,494 350,762 350,269 994,269 318,0 599,-47 282,-46 519,-140 z"
                 transform="scale(0.015625)" />
            </defs>
            <use
               xlink:href="#DejaVuSans-23"
               id="use67" />
            <use
               xlink:href="#DejaVuSans-20"
               x="83.789062"
               id="use68" />
            <use
               xlink:href="#DejaVuSans-71"
               x="115.57617"
               id="use69" />
            <use
               xlink:href="#DejaVuSans-75"
               x="179.05273"
               id="use70" />
            <use
               xlink:href="#DejaVuSans-62"
               x="242.43164"
               id="use71" />
            <use
               xlink:href="#DejaVuSans-69"
               x="305.9082"
               id="use72" />
            <use
               xlink:href="#DejaVuSans-74"
               x="333.69141"
               id="use73" />
            <use
               xlink:href="#DejaVuSans-73"
               x="372.90039"
               id="use74" />
          </g>
        </g>
      </g>
      <g
         id="matplotlib.axis_4">
        <g
           id="ytick_4">
          <g
             id="line2d_21">
            <g
               id="g75">
              <use
                 xlink:href="#m4716a5d88e"
                 x="43.78125"
                 y="183.21474"
                 style="stroke:#000000;stroke-width:0.8"
                 id="use75" />
            </g>
          </g>
          <g
             id="text_22">
            <!-- 0.8 -->
            <g
               transform="matrix(0.1,0,0,-0.1,20.878125,187.01395)"
               id="g78">
              <defs
                 id="defs75">
                <path
                   id="DejaVuSans-2e"
                   d="m 684,794 h 660 V 0 H 684 Z"
                   transform="scale(0.015625)" />
              </defs>
              <use
                 xlink:href="#DejaVuSans-30"
                 id="use76" />
              <use
                 xlink:href="#DejaVuSans-2e"
                 x="63.623047"
                 id="use77" />
              <use
                 xlink:href="#DejaVuSans-38"
                 x="95.410156"
                 id="use78" />
            </g>
          </g>
        </g>
        <g
           id="ytick_5">
          <g
             id="line2d_22">
            <g
               id="g79">
              <use
                 xlink:href="#m4716a5d88e"
                 x="43.78125"
                 y="157.38771"
                 style="stroke:#000000;stroke-width:0.8"
                 id="use79" />
            </g>
          </g>
          <g
             id="text_23">
            <!-- 1.0 -->
            <g
               transform="matrix(0.1,0,0,-0.1,20.878125,161.18694)"
               id="g82">
              <use
                 xlink:href="#DejaVuSans-31"
                 id="use80" />
              <use
                 xlink:href="#DejaVuSans-2e"
                 x="63.623047"
                 id="use81" />
              <use
                 xlink:href="#DejaVuSans-30"
                 x="95.410156"
                 id="use82" />
            </g>
          </g>
        </g>
        <g
           id="ytick_6">
          <g
             id="line2d_23">
            <g
               id="g83">
              <use
                 xlink:href="#m4716a5d88e"
                 x="43.78125"
                 y="131.5607"
                 style="stroke:#000000;stroke-width:0.8"
                 id="use83" />
            </g>
          </g>
          <g
             id="text_24">
            <!-- 1.2 -->
            <g
               transform="matrix(0.1,0,0,-0.1,20.878125,135.35992)"
               id="g86">
              <use
                 xlink:href="#DejaVuSans-31"
                 id="use84" />
              <use
                 xlink:href="#DejaVuSans-2e"
                 x="63.623047"
                 id="use85" />
              <use
                 xlink:href="#DejaVuSans-32"
                 x="95.410156"
                 id="use86" />
            </g>
          </g>
        </g>
        <g
           id="text_25">
          <!-- MSE -->
          <g
             transform="matrix(0,-0.1,-0.1,0,14.798438,156.96609)"
             id="g89">
            <defs
               id="defs86">
              <path
                 id="DejaVuSans-4d"
                 d="m 628,4666 h 941 L 2759,1491 3956,4666 h 941 V 0 H 4281 V 4097 L 3078,897 H 2444 L 1241,4097 V 0 H 628 Z"
                 transform="scale(0.015625)" />
              <path
                 id="DejaVuSans-53"
                 d="m 3425,4513 v -616 q -359,172 -678,256 -319,85 -616,85 -515,0 -795,-200 -280,-200 -280,-569 0,-310 186,-468 186,-157 705,-254 l 381,-78 q 706,-135 1042,-474 336,-339 336,-907 0,-679 -455,-1029 -454,-350 -1332,-350 -331,0 -705,75 -373,75 -773,222 v 650 q 384,-215 753,-325 369,-109 725,-109 540,0 834,212 294,213 294,607 0,343 -211,537 -211,194 -692,291 l -385,75 q -706,140 -1022,440 -315,300 -315,835 0,619 436,975 436,356 1201,356 329,0 669,-60 341,-59 697,-177 z"
                 transform="scale(0.015625)" />
              <path
                 id="DejaVuSans-45"
                 d="M 628,4666 H 3578 V 4134 H 1259 V 2753 H 3481 V 2222 H 1259 V 531 H 3634 V 0 H 628 Z"
                 transform="scale(0.015625)" />
            </defs>
            <use
               xlink:href="#DejaVuSans-4d"
               id="use87" />
            <use
               xlink:href="#DejaVuSans-53"
               x="86.279297"
               id="use88" />
            <use
               xlink:href="#DejaVuSans-45"
               x="149.75586"
               id="use89" />
          </g>
        </g>
        <g
           id="text_26">
          <!-- 1e−13 -->
          <g
             transform="matrix(0.1,0,0,-0.1,43.78125,105.51844)"
             id="g94">
            <use
               xlink:href="#DejaVuSans-31"
               id="use90" />
            <use
               xlink:href="#DejaVuSans-65"
               x="63.623047"
               id="use91" />
            <use
               xlink:href="#DejaVuSans-2212"
               x="125.14648"
               id="use92" />
            <use
               xlink:href="#DejaVuSans-31"
               x="208.93555"
               id="use93" />
            <use
               xlink:href="#DejaVuSans-33"
               x="272.55859"
               id="use94" />
          </g>
        </g>
      </g>
      <g
         id="line2d_24">
        <path
           d="m 56.463068,111.9548 18.116883,9.1912 18.116883,9.59488 18.116886,5.17924 18.11688,7.90129 18.11688,4.52078 18.11689,6.31662 18.11688,5.60646 18.11688,3.23261 18.11689,0.18352 18.11688,6.76886 18.11688,1.40499 18.11689,1.14116 18.11688,6.65328 18.11688,1.03238"
           clip-path="url(#pcfcff9009f)"
           style="fill:none;stroke:#1f77b4;stroke-width:1.5;stroke-linecap:square"
           id="path94" />
      </g>
      <g
         id="line2d_25">
        <path
           d="m 56.463068,113.57858 18.116883,8.53362 18.116883,9.40917 18.116886,4.95963 18.11688,7.57933 18.11688,4.44981 18.11689,6.22478 18.11688,5.55974 18.11688,3.21048 18.11689,0.17019 18.11688,6.7587 18.11688,1.39935 18.11689,1.13775 18.11688,6.65236 18.11688,1.03178"
           clip-path="url(#pcfcff9009f)"
           style="fill:none;stroke:#ff7f0e;stroke-width:1.5;stroke-linecap:square"
           id="path95" />
      </g>
      <g
         id="patch_8">
        <path
           d="m 43.78125,184.11844 v -75.6"
           style="fill:none;stroke:#000000;stroke-width:0.8;stroke-linecap:square;stroke-linejoin:miter"
           id="path96" />
      </g>
      <g
         id="patch_9">
        <path
           d="m 322.78125,184.11844 v -75.6"
           style="fill:none;stroke:#000000;stroke-width:0.8;stroke-linecap:square;stroke-linejoin:miter"
           id="path97" />
      </g>
      <g
         id="patch_10">
        <path
           d="m 43.78125,184.11844 h 279"
           style="fill:none;stroke:#000000;stroke-width:0.8;stroke-linecap:square;stroke-linejoin:miter"
           id="path98" />
      </g>
      <g
         id="patch_11">
        <path
           d="m 43.78125,108.51844 h 279"
           style="fill:none;stroke:#000000;stroke-width:0.8;stroke-linecap:square;stroke-linejoin:miter"
           id="path99" />
      </g>
      <g
         id="legend_1">
        <g
           id="patch_12">
          <path
             d="m 258.45469,145.87469 h 57.32656 q 2,0 2,-2 v -28.35625 q 0,-2 -2,-2 h -57.32656 q -2,0 -2,2 v 28.35625 q 0,2 2,2 z"
             style="opacity:0.8;fill:#ffffff;stroke:#cccccc;stroke-linejoin:miter"
             id="path100" />
        </g>
        <g
           id="line2d_26">
          <path
             d="m 260.45469,121.61687 h 10 10"
             style="fill:none;stroke:#1f77b4;stroke-width:1.5;stroke-linecap:square"
             id="path101" />
        </g>
        <g
           id="text_27">
          <!-- FP32 -->
          <g
             transform="matrix(0.1,0,0,-0.1,288.45469,125.11687)"
             id="g104">
            <defs
               id="defs101">
              <path
                 id="DejaVuSans-50"
                 d="M 1259,4147 V 2394 h 794 q 441,0 681,228 241,228 241,650 0,419 -241,647 -240,228 -681,228 z m -631,519 h 1425 q 785,0 1186,-355 402,-355 402,-1039 0,-691 -402,-1044 -401,-353 -1186,-353 H 1259 V 0 H 628 Z"
                 transform="scale(0.015625)" />
            </defs>
            <use
               xlink:href="#DejaVuSans-46"
               id="use101" />
            <use
               xlink:href="#DejaVuSans-50"
               x="57.519531"
               id="use102" />
            <use
               xlink:href="#DejaVuSans-33"
               x="117.82227"
               id="use103" />
            <use
               xlink:href="#DejaVuSans-32"
               x="181.44531"
               id="use104" />
          </g>
        </g>
        <g
           id="line2d_27">
          <path
             d="m 260.45469,136.295 h 10 10"
             style="fill:none;stroke:#ff7f0e;stroke-width:1.5;stroke-linecap:square"
             id="path104" />
        </g>
        <g
           id="text_28">
          <!-- FX32 -->
          <g
             transform="matrix(0.1,0,0,-0.1,288.45469,139.795)"
             id="g108">
            <defs
               id="defs104">
              <path
                 id="DejaVuSans-58"
                 d="m 403,4666 h 678 L 2241,2931 3406,4666 h 678 L 2584,2425 4184,0 H 3506 L 2194,1984 872,0 H 191 l 1665,2491 z"
                 transform="scale(0.015625)" />
            </defs>
            <use
               xlink:href="#DejaVuSans-46"
               id="use105" />
            <use
               xlink:href="#DejaVuSans-58"
               x="57.519531"
               id="use106" />
            <use
               xlink:href="#DejaVuSans-33"
               x="126.02539"
               id="use107" />
            <use
               xlink:href="#DejaVuSans-32"
               x="189.64844"
               id="use108" />
          </g>
        </g>
      </g>
    </g>
  </g>
  <defs
     id="defs109">
    <clipPath
       id="pf2bbf200ce">
      <rect
         x="43.78125"
         y="17.798437"
         width="279"
         height="75.599998"
         id="rect108" />
    </clipPath>
    <clipPath
       id="pcfcff9009f">
      <rect
         x="43.78125"
         y="108.51844"
         width="279"
         height="75.599998"
         id="rect109" />
    </clipPath>
  </defs>
</svg>
